<svg version="1.2" xmlns="http://www.w3.org/2000/svg" viewBox="0 0 25 26" width="25" height="26">
	<title>home-latest-svg</title>
	<style>
		.s0 { fill: #3498db } 
	</style>
	<path id="Layer" fill-rule="evenodd" class="s0" d="m5.5 16q-1.1-0.6-2.1-1.1-0.9-0.5-1.9-1c-0.3-0.2-0.6-0.5-0.6-0.9 0-0.4 0.3-0.6 0.6-0.8q1.9-1 3.7-2 0.1-0.1 0.3-0.1-0.1-0.1-0.2-0.2-1.9-1-3.8-2c-0.3-0.2-0.6-0.4-0.6-0.8 0-0.4 0.3-0.7 0.6-0.9q5.4-2.9 10.8-5.8 0.5-0.3 1 0 5.5 2.9 10.9 5.9c0.4 0.2 0.7 0.7 0.4 1.1-0.1 0.2-0.2 0.4-0.4 0.5q-1.9 1-3.8 2-0.1 0.1-0.2 0.2 0.1 0 0.2 0.1 1.9 1 3.8 2.1c0.5 0.2 0.6 0.6 0.4 1 0 0.2-0.2 0.4-0.4 0.5q-1.9 1.1-3.7 2.1-0.2 0-0.3 0.1 0.1 0.1 0.2 0.2 1.9 1 3.8 2 0.5 0.3 0.5 0.8 0 0.5-0.5 0.8 0 0-0.1 0.1-3.1 1.7-6.2 3.3-2.3 1.2-4.5 2.5c-0.4 0.2-0.7 0.2-1.1 0q-5.4-2.9-10.8-5.8-0.1-0.1-0.3-0.3c-0.5-0.4-0.3-1.1 0.2-1.4q1.9-1 3.8-2 0.1-0.1 0.3-0.2zm-1.9-8.9q0.1 0 0.2 0.1 4.4 2.4 8.9 4.8c0.1 0 0.2 0 0.3 0q4.4-2.4 8.9-4.8 0.1-0.1 0.1-0.1 0-0.1-0.1-0.1-4.4-2.4-8.9-4.8c-0.1-0.1-0.3-0.1-0.4 0q-2.8 1.5-5.6 3-1.7 0.9-3.4 1.9zm18.5 5.9q-0.2 0-0.2-0.1-1.7-0.9-3.4-1.7c-0.1-0.1-0.3-0.1-0.4 0q-2.4 1.2-4.7 2.5c-0.4 0.2-0.8 0.2-1.1 0q-2.4-1.3-4.8-2.6c-0.1 0-0.3-0.1-0.4 0q-1.4 0.8-2.8 1.5-0.3 0.2-0.7 0.4 0.1 0.1 0.2 0.2 4.4 2.3 8.8 4.8c0.2 0 0.3 0 0.4-0.1q3-1.6 6-3.2 1.5-0.8 3.1-1.7zm-18.5 6q0 0 0 0 0 0 0 0zm0.2 0.1q4.4 2.4 8.8 4.8c0.2 0.1 0.3 0.1 0.4 0q4.4-2.4 8.8-4.8 0.1 0 0.3-0.1-0.2-0.1-0.2-0.1-1.7-0.9-3.4-1.8c-0.1-0.1-0.3-0.1-0.4 0q-2.4 1.3-4.7 2.6c-0.4 0.2-0.8 0.2-1.2-0.1q-2.4-1.2-4.7-2.5c-0.1 0-0.2-0.1-0.3 0q-1.8 0.9-3.6 1.9 0.1 0.1 0.2 0.1z"/>
</svg>