<svg version="1.2" xmlns="http://www.w3.org/2000/svg" viewBox="0 0 23 28" width="23" height="28">
	<title>home-marketcap-svg</title>
	<style>
		.s0 { fill: #3498db } 
	</style>
	<path id="Layer" fill-rule="evenodd" class="s0" d="m10.2 25.4v-1.8q-2.3 0.1-4.6-0.6-2.4-0.8-4.4-2.4c-0.4-0.4-0.4-1 0-1.4q0.8-0.9 1.6-1.8c-2.1-2.2-3.1-4.9-2.7-8.1 0.3-2.4 1.4-4.4 3.2-6 3.6-3.2 9.3-3.2 13 0.7q0.1-0.2 0.4-0.4 0.6-0.7 1.4-1.4c0.4-0.5 1-0.5 1.4 0.1 2.1 2.7 2.9 5.8 2.6 9.2q-0.4 5.9-5 9.5c-1.5 1.1-3.1 1.9-4.9 2.3q-0.1 0-0.2 0.1v2q0.1 0 0.3 0 1.9 0 3.9 0c0.4 0 0.7 0.2 0.8 0.6 0.1 0.3 0 0.7-0.3 0.9-0.2 0.1-0.3 0.2-0.5 0.2q-5.1 0-10.2 0c-0.5 0-0.9-0.4-0.9-0.9 0-0.5 0.4-0.8 0.9-0.8q2 0 3.9 0 0.2 0 0.3 0zm-7.1-5.6c3.9 3 10.3 3 14.4-1.6 4.2-4.5 3.4-10.9 1.1-14.2q-0.6 0.7-1.3 1.4 0.1 0.1 0.1 0.2c2.2 3.7 1.7 8.5-1.3 11.6-2.3 2.3-5 3.2-8.1 2.8-1.3-0.2-2.4-0.7-3.5-1.3-0.1-0.1-0.2-0.2-0.3 0q-0.6 0.6-1.1 1.1zm8.8-11.9q0 0 0 0 0 0 0 0 0 0 0 0zm0-0.1q0-2.2 0.1-4.5c0-0.2-0.1-0.2-0.2-0.2q-4.5-1.3-7.8 1.9c-0.2 0.1-0.1 0.2-0.1 0.4q0.6 1 1.1 2 0.1 0.3 0.1 0.7 0 1.6 0 3.2 0 0.6-0.5 0.9-0.9 0.5-1.8 1-0.2 0.2-0.5 0.3c0.7 1.8 2 3.2 3.7 4.1v-0.4q0-2.4 0-4.8 0-0.4 0.2-0.8c0.8-0.9 1.5-1.9 2.2-2.9 0.4-0.6 0.8-0.9 1.6-0.8 0.6 0.1 1.3 0 1.9 0q0 0 0-0.1zm-4.2 10.4q0 0 0 0zm3.7-0.2q-0.1-1.4-0.3-2.8c0-0.3 0-0.6 0.2-0.8q0.2-0.3 0.6-0.4 2.4-1 4.8-2c0.1 0 0.2-0.1 0.2-0.2 0.5-3.2-0.6-5.7-3.1-7.7q0 0-0.1 0 0 2.2 0 4.5c0 0.8-0.3 1.1-1.1 1.1q-1.3 0-2.5 0c-0.2 0-0.3 0-0.5 0.2q-0.9 1.2-1.8 2.5c-0.1 0.1-0.1 0.3-0.1 0.4q0 2.6 0 5.1v0.3c1.3 0.3 2.5 0.2 3.7-0.2zm-8.7-11.3c-0.8 1.6-1.2 3.3-0.9 5.1q0.8-0.5 1.5-0.9c0.1 0 0.1-0.1 0.1-0.2q0-1.2 0-2.4 0-0.1 0-0.2c-0.2-0.5-0.5-0.9-0.7-1.4zm10.4 10.7c1-0.4 2.8-2.3 3-3.2q-1.6 0.6-3.1 1.2c-0.1 0-0.1 0.1-0.1 0.2q0.1 0.9 0.2 1.8z"/>
</svg>