<svg version="1.2" xmlns="http://www.w3.org/2000/svg" viewBox="0 0 25 24" width="25" height="24">
	<title>home-txs-svg</title>
	<style>
		.s0 { fill: #3498db } 
	</style>
	<path id="Layer" fill-rule="evenodd" class="s0" d="m12.8 0.6q4.5 0 9 0c1.8 0 2.9 1.2 2.9 3q0 8.5 0 17c0 1.7-1.1 2.9-2.9 2.9q-9 0-18 0c-1.7 0-2.9-1.2-2.9-2.9q0-8.5 0-17c0-1.8 1.2-3 2.9-3q4.5 0 9 0zm-9 1.9c-0.7 0-1 0.3-1 1.1q0 8.5 0 17-0.1 1.1 1 1 9 0 18 0c0.8 0 1.1-0.3 1.1-1.1q0-8.4 0-16.9c0-0.8-0.3-1.1-1.1-1.1q-4.5 0-9 0-4.5 0-9 0zm4.9 6.3v0.1q0.2 0 0.3 0 4.9 0 9.7 0c0.7 0 1.2 0.6 0.9 1.2-0.1 0.4-0.4 0.6-0.9 0.6q-1.2 0-2.5 0-4.8 0-9.6 0c-0.4 0-0.6-0.1-0.8-0.3-0.4-0.4-0.4-0.9 0-1.3q1.3-1.4 2.7-2.7c0.4-0.4 0.9-0.4 1.3 0 0.4 0.3 0.4 0.9 0 1.3q-0.3 0.3-0.6 0.5-0.2 0.3-0.5 0.6zm7.6 8.1c0.4-0.4 0.7-0.8 1.2-1.2-0.2 0-0.3 0-0.4 0q-4.8 0-9.7 0c-0.7 0-1.2-0.6-0.9-1.2 0.1-0.4 0.4-0.6 0.9-0.6q1.2 0 2.4 0 4.9 0 9.7 0 0.2 0 0.3 0 0.6 0.1 0.7 0.6 0.2 0.5-0.1 0.9-1.4 1.4-2.9 2.8c-0.3 0.4-0.9 0.3-1.2 0-0.4-0.4-0.4-0.9 0-1.3z"/>
</svg>